<?xml version="1.0" encoding="UTF-8"?>
<svg xmlns="http://www.w3.org/2000/svg" xmlns:xlink="http://www.w3.org/1999/xlink" width="3000pt" height="2999.999989pt" viewBox="0 0 3000 2999.999989" version="1.2">
<defs>
<clipPath id="clip1">
  <path d="M 424.992188 759 L 2665.578125 759 L 2665.578125 2999.96875 L 424.992188 2999.96875 Z M 424.992188 759 "/>
</clipPath>
</defs>
<g id="surface1">
<path style=" stroke:none;fill-rule:nonzero;fill:rgb(29.40979%,14.118958%,21.179199%);fill-opacity:1;" d="M 1115.28125 794.085938 L 1559.308594 0.078125 L 1960.390625 794.085938 L 1914.992188 794.085938 L 1557.484375 86.445312 L 1161.710938 794.085938 L 1115.28125 794.085938 "/>
<g clip-path="url(#clip1)" clip-rule="nonzero">
<path style=" stroke:none;fill-rule:nonzero;fill:rgb(29.40979%,14.118958%,21.179199%);fill-opacity:1;" d="M 2538.484375 2873.035156 L 551.925781 2873.035156 L 551.925781 886.472656 L 2538.484375 886.472656 Z M 2001.910156 759.539062 L 2009.359375 774.277344 C 2016.253906 787.90625 2015.539062 804.070312 2007.617188 817.0625 C 1999.613281 829.980469 1985.511719 837.902344 1970.296875 837.902344 L 1924.894531 837.902344 C 1908.335938 837.902344 1893.203125 828.554688 1885.753906 813.816406 L 1858.339844 759.539062 L 1241.183594 759.539062 L 1209.886719 815.480469 C 1202.121094 829.265625 1187.542969 837.902344 1171.617188 837.902344 L 1125.183594 837.902344 C 1109.574219 837.902344 1095.234375 829.664062 1087.390625 816.273438 C 1079.464844 802.800781 1079.308594 786.242188 1086.914062 772.691406 L 1094.28125 759.539062 L 424.992188 759.539062 L 424.992188 2999.96875 L 2665.5 2999.96875 L 2665.5 759.539062 L 2001.910156 759.539062 "/>
</g>
<path style=" stroke:none;fill-rule:nonzero;fill:rgb(29.40979%,14.118958%,21.179199%);fill-opacity:1;" d="M 1943.277344 2401.117188 L 1791.703125 2158.578125 L 1789.5625 2155.171875 L 1772.84375 2128.390625 L 1680.773438 1981.09375 L 1490.058594 1675.964844 C 1484.589844 1667.246094 1467.554688 1667.246094 1462.089844 1675.964844 L 1264.003906 1992.980469 L 1240.628906 2030.378906 L 1236.585938 2036.796875 L 1232.386719 2043.453125 L 1008.949219 2401.117188 C 1004.273438 2408.484375 1011.71875 2416.960938 1022.894531 2416.960938 L 1929.253906 2416.960938 C 1940.425781 2416.960938 1947.875 2408.484375 1943.277344 2401.117188 Z M 2268.21875 2402.542969 L 2130.191406 2181.636719 L 2128.289062 2178.546875 L 2112.996094 2154.140625 L 1855.566406 1742.125 C 1850.574219 1734.199219 1835.042969 1734.199219 1830.050781 1742.125 L 1703.199219 1945.203125 L 1975.445312 2380.988281 C 1982.417969 2392.003906 1984.320312 2404.839844 1981.230469 2416.960938 L 2255.539062 2416.960938 C 2265.683594 2416.960938 2272.496094 2409.277344 2268.21875 2402.542969 Z M 970.914062 2416.960938 L 812.207031 2416.960938 C 804.207031 2416.960938 798.816406 2410.863281 802.144531 2405.550781 L 963.148438 2147.960938 L 966.160156 2143.128906 L 985.890625 2111.59375 L 1128.589844 1883.242188 C 1132.472656 1876.980469 1144.753906 1876.980469 1148.714844 1883.242188 L 1218.207031 1994.484375 L 976.621094 2380.988281 C 969.804688 2392.082031 967.902344 2404.917969 970.914062 2416.960938 "/>
<path style=" stroke:none;fill-rule:nonzero;fill:rgb(29.40979%,14.118958%,21.179199%);fill-opacity:1;" d="M 2328.671875 2673.125 L 741.929688 2673.125 L 741.929688 1086.382812 L 2328.671875 1086.382812 Z M 640.585938 984.960938 L 640.585938 2774.546875 L 2430.09375 2774.546875 L 2430.09375 984.960938 L 640.585938 984.960938 "/>
</g>
</svg>
