<?xml version="1.0" encoding="UTF-8"?>
<svg xmlns="http://www.w3.org/2000/svg" xmlns:xlink="http://www.w3.org/1999/xlink" width="3000pt" height="2999.999989pt" viewBox="0 0 3000 2999.999989" version="1.2">
<g id="surface1">
<path style=" stroke:none;fill-rule:nonzero;fill:rgb(29.40979%,14.118958%,21.179199%);fill-opacity:1;" d="M 1881.0625 64.554688 C 1594.449219 64.554688 1324.980469 176.164062 1122.3125 378.832031 C 919.636719 581.507812 808.027344 850.960938 808.027344 1137.582031 C 808.027344 1352.570312 870.820312 1557.898438 987.742188 1732.640625 L 865.972656 1854.410156 L 865.972656 1854.417969 L 66.9375 2653.464844 C 0.183594 2720.199219 4.355469 2832.980469 76.234375 2904.84375 L 113.785156 2942.402344 C 151.5 2980.113281 200.464844 2999.195312 248.132812 2999.195312 C 291.355469 2999.195312 333.515625 2983.507812 365.253906 2951.761719 L 501.019531 2815.988281 L 1286.078125 2030.9375 C 1460.800781 2147.828125 1666.128906 2210.613281 1881.082031 2210.613281 C 2167.695312 2210.613281 2437.15625 2099 2639.824219 1896.324219 C 2842.492188 1693.65625 2954.101562 1424.203125 2954.101562 1137.582031 C 2954.101562 850.960938 2842.492188 581.507812 2639.824219 378.839844 C 2437.136719 176.164062 2167.683594 64.554688 1881.0625 64.554688 Z M 1127.0625 2115.164062 C 1127.097656 2115.128906 1127.125 2115.085938 1127.160156 2115.050781 L 1127.160156 2115.058594 Z M 463.617188 2778.601562 C 417.480469 2824.730469 338.222656 2820.527344 286.929688 2769.234375 L 249.378906 2731.679688 C 198.128906 2680.433594 193.949219 2601.195312 240.078125 2555.066406 L 883.308594 1911.84375 C 915.148438 1953.671875 950.113281 1993.695312 987.515625 2031.097656 C 1024.910156 2068.480469 1064.945312 2103.46875 1106.84375 2135.363281 Z M 327.847656 2914.378906 C 281.710938 2960.488281 202.457031 2956.292969 151.164062 2905.007812 L 113.609375 2867.457031 C 62.363281 2816.199219 58.183594 2736.976562 104.3125 2690.851562 L 155.375 2639.777344 C 156.652344 2685.84375 175.609375 2732.695312 211.992188 2769.074219 L 249.542969 2806.628906 C 285.976562 2843.070312 332.90625 2861.949219 379.027344 2863.191406 Z M 1144.769531 2097.460938 C 1102.667969 2065.835938 1062.347656 2031.140625 1024.910156 1993.71875 C 987.460938 1956.265625 952.789062 1915.96875 921.222656 1873.929688 L 1018.695312 1776.464844 C 1049.992188 1818.515625 1084.566406 1858.578125 1122.3125 1896.324219 C 1160.074219 1934.089844 1200.160156 1968.679688 1242.230469 1999.996094 Z M 2602.421875 1858.929688 C 2409.738281 2051.613281 2153.546875 2157.722656 1881.0625 2157.722656 C 1608.558594 2157.722656 1352.378906 2051.613281 1159.699219 1858.929688 C 967.015625 1666.25 860.90625 1410.066406 860.90625 1137.574219 C 860.90625 865.078125 967.023438 608.898438 1159.699219 416.214844 C 1352.378906 223.535156 1608.558594 117.425781 1881.0625 117.425781 C 2153.546875 117.425781 2409.730469 223.535156 2602.421875 416.214844 C 3000.167969 813.980469 3000.167969 1461.183594 2602.421875 1858.929688 Z M 2602.421875 1858.929688 "/>
<path style=" stroke:none;fill-rule:nonzero;fill:rgb(29.40979%,14.118958%,21.179199%);fill-opacity:1;" d="M 1511.554688 299.214844 L 1530.609375 348.539062 C 1553.980469 339.507812 1578.101562 331.523438 1602.304688 324.808594 L 1588.15625 273.859375 C 1562.292969 281.03125 1536.53125 289.5625 1511.554688 299.214844 Z M 1511.554688 299.214844 "/>
<path style=" stroke:none;fill-rule:nonzero;fill:rgb(29.40979%,14.118958%,21.179199%);fill-opacity:1;" d="M 1064.039062 710.164062 L 1111.558594 733.367188 C 1186.390625 580.140625 1311.664062 453.867188 1464.289062 377.800781 L 1440.703125 330.472656 C 1277.714844 411.695312 1143.949219 546.539062 1064.039062 710.164062 Z M 1064.039062 710.164062 "/>
</g>
</svg>
