<?xml version="1.0" encoding="UTF-8"?>
<svg xmlns="http://www.w3.org/2000/svg" xmlns:xlink="http://www.w3.org/1999/xlink" width="3000pt" height="2999.999989pt" viewBox="0 0 3000 2999.999989" version="1.2">
<g id="surface1">
<path style=" stroke:none;fill-rule:nonzero;fill:rgb(29.40979%,14.118958%,21.179199%);fill-opacity:1;" d="M 2949.589844 2092.09375 C 2990 2019.714844 3004.496094 1888.683594 2843.992188 1675.597656 C 2842.09375 1673.046875 2839.964844 1670.78125 2837.722656 1668.730469 L 2866.460938 1186.882812 L 2866.617188 1183.960938 L 2866.714844 1182.355469 C 2866.734375 1181.96875 2866.714844 1181.601562 2866.734375 1181.234375 C 2866.773438 1180.265625 2866.847656 1179.355469 2866.847656 1178.410156 C 2866.847656 1177.789062 2866.8125 1177.1875 2866.773438 1176.589844 C 2866.773438 1175.949219 2866.714844 1175.292969 2866.695312 1174.671875 C 2863.714844 1093.800781 2763.148438 1048.554688 2510.925781 1014.050781 C 2315.527344 987.328125 2056.378906 972.601562 1781.238281 972.601562 C 1516.183594 972.601562 1266.207031 986.300781 1073.535156 1011.1875 C 1074.253906 989.648438 1074.96875 968.226562 1075.664062 947.035156 C 1080.71875 796.4375 1085.476562 654.183594 1090.125 537.566406 C 1093.394531 456.519531 1067.652344 383.195312 1017.640625 331.199219 C 968.832031 280.378906 900.105469 252.359375 824.21875 252.359375 L 821.914062 252.378906 L 819.667969 252.359375 C 743.761719 252.359375 675.074219 280.378906 626.207031 331.199219 C 576.234375 383.195312 550.472656 456.519531 553.742188 537.566406 C 558.390625 654.183594 563.167969 796.4375 568.203125 947.035156 C 571.492188 1046.214844 574.976562 1149.652344 578.632812 1252.757812 L 585.96875 1504.488281 C 579.542969 1638.269531 509.289062 1751.515625 377.058594 1841.117188 C 375.300781 1842.296875 373.710938 1843.691406 372.066406 1845.046875 C 303.6875 1883.886719 257.433594 1957.324219 257.433594 2041.429688 L 257.433594 2200.753906 C 257.433594 2206.695312 257.703125 2212.828125 258.246094 2219.507812 C 260.257812 2243.714844 275.121094 2263.957031 295.753906 2273.867188 C 292.773438 2429.628906 265.582031 2703.5 22.027344 2872.308594 C 6.546875 2883.046875 -0.191406 2902.632812 5.421875 2920.628906 C 11.074219 2938.644531 27.757812 2950.914062 46.648438 2950.914062 L 334.597656 2950.914062 C 345.472656 2950.914062 356.003906 2946.792969 363.976562 2939.363281 C 410.5625 2896.011719 457.613281 2841.519531 496.378906 2787.621094 C 496.183594 2826.328125 493.359375 2865.84375 485.347656 2897.019531 C 482.019531 2909.945312 484.882812 2923.667969 493.050781 2934.195312 C 501.234375 2944.742188 513.816406 2950.914062 527.132812 2950.914062 L 1051.667969 2950.914062 C 1075.183594 2950.914062 1094.382812 2932.066406 1094.808594 2908.554688 C 1095.078125 2892.703125 1098.253906 2875.269531 1103.011719 2857.5625 C 1115.882812 2883.917969 1129.953125 2908.863281 1142.6875 2930.015625 C 1150.507812 2942.980469 1164.539062 2950.914062 1179.65625 2950.914062 L 1359.550781 2950.914062 C 1374.917969 2950.914062 1389.164062 2942.730469 1396.867188 2929.453125 C 1404.589844 2916.179688 1404.667969 2899.785156 1397.058594 2886.433594 C 1394.273438 2881.5 1391.5625 2875.597656 1388.96875 2868.882812 C 1511.714844 2876.757812 1645.003906 2880.917969 1781.238281 2880.917969 C 2023.359375 2880.917969 2256.128906 2867.796875 2436.820312 2843.976562 C 2708.902344 2808.097656 2768.335938 2762.347656 2776.078125 2700.171875 C 2776.234375 2698.777344 2776.386719 2697.363281 2776.464844 2695.953125 L 2806.019531 2200.636719 C 2872.636719 2178.828125 2921.390625 2142.523438 2949.589844 2092.09375 Z M 1473.992188 1745.363281 C 1470.820312 1767.8125 1449.585938 1784.085938 1426.808594 1780.914062 C 1415.757812 1779.363281 1405.980469 1773.597656 1399.246094 1764.695312 C 1392.550781 1755.773438 1389.6875 1744.78125 1391.253906 1733.734375 C 1394.15625 1713.21875 1411.867188 1697.757812 1432.515625 1697.757812 C 1434.472656 1697.757812 1436.464844 1697.894531 1438.417969 1698.183594 C 1449.492188 1699.730469 1459.285156 1705.5 1465.980469 1714.398438 C 1472.695312 1723.320312 1475.542969 1734.292969 1473.992188 1745.363281 Z M 1519.011719 1674.457031 C 1501.609375 1651.390625 1476.277344 1636.449219 1447.671875 1632.445312 C 1442.660156 1631.730469 1437.566406 1631.378906 1432.515625 1631.378906 C 1378.984375 1631.378906 1332.960938 1671.417969 1325.507812 1724.503906 C 1321.484375 1753.105469 1328.855469 1781.570312 1346.253906 1804.65625 C 1363.617188 1827.726562 1388.96875 1842.644531 1417.554688 1846.652344 C 1422.609375 1847.367188 1427.679688 1847.714844 1432.730469 1847.714844 C 1454.445312 1847.714844 1474.863281 1841.058594 1492.03125 1829.679688 C 1519.976562 1846.265625 1548.253906 1862.578125 1576.722656 1878.464844 C 1873.65625 2044.273438 2175.8125 2160.308594 2427.628906 2205.242188 C 2501.714844 2218.460938 2569.433594 2224.984375 2630.089844 2224.984375 C 2644.375 2224.984375 2658.097656 2224.5 2671.605469 2223.785156 L 2645.359375 2663.925781 C 2615.476562 2677.160156 2534.480469 2699.492188 2371.867188 2718.207031 C 2204.085938 2737.5 1994.328125 2748.144531 1781.238281 2748.144531 C 1634.941406 2748.144531 1490.269531 2743.132812 1359.667969 2733.746094 C 1356.066406 2707.96875 1352.894531 2680.316406 1350.050781 2651.539062 C 1482.140625 2660.480469 1628.804688 2665.472656 1781.238281 2665.472656 C 1993.863281 2665.472656 2196.886719 2656.164062 2368.421875 2638.632812 C 2386.675781 2636.753906 2399.949219 2620.460938 2398.09375 2602.230469 C 2396.214844 2583.980469 2379.917969 2570.707031 2361.667969 2572.582031 C 2192.339844 2589.902344 1991.617188 2599.078125 1781.238281 2599.078125 C 1625.824219 2599.078125 1476.953125 2594.007812 1344.164062 2584.851562 C 1335.824219 2478.320312 1331.546875 2364.800781 1330.191406 2277.96875 C 1356.398438 2270.75 1376.3125 2247.835938 1378.636719 2219.507812 C 1379.234375 2212.828125 1379.46875 2206.695312 1379.46875 2200.753906 L 1379.46875 2041.429688 C 1379.46875 1961.542969 1337.699219 1891.277344 1274.917969 1851.140625 C 1272.402344 1848.800781 1269.710938 1846.554688 1266.808594 1844.5625 C 1175.882812 1782.964844 1066.085938 1674.011719 1057.878906 1504.488281 L 1062.542969 1344.195312 C 1205.492188 1363.199219 1381.171875 1375.894531 1571.789062 1381.273438 C 1615.101562 1394.761719 1615.140625 1424.257812 1615.140625 1437.320312 C 1615.140625 1456.226562 1609.046875 1480.667969 1602.542969 1506.539062 C 1591.996094 1548.726562 1580.035156 1596.527344 1591.164062 1639.296875 C 1603.238281 1685.683594 1644.636719 1718.871094 1696.640625 1723.863281 C 1701.113281 1724.289062 1705.546875 1724.503906 1709.917969 1724.503906 C 1760.21875 1724.503906 1804.15625 1696.675781 1826.625 1649.648438 C 1851.496094 1597.535156 1837.945312 1548.070312 1825.964844 1504.449219 C 1818.84375 1478.5 1812.128906 1454 1812.128906 1428.589844 C 1812.128906 1402.871094 1819.097656 1389.304688 1851.03125 1383.847656 C 1902.859375 1383.363281 1953.972656 1382.359375 2004.023438 1380.867188 C 2032.765625 1388.898438 2042.617188 1414.40625 2042.617188 1485.988281 C 2042.617188 1523.359375 2032.300781 1556.0625 2021.382812 1590.683594 C 2005.28125 1641.773438 1988.65625 1694.601562 2006.074219 1761.269531 C 2021.886719 1821.917969 2064.136719 1864.476562 2116.335938 1872.371094 C 2166.25 1879.976562 2214.171875 1855.339844 2244.480469 1806.554688 C 2268.960938 1767.132812 2280.554688 1714.613281 2257.5625 1586.347656 C 2253.402344 1563.300781 2251.851562 1531.738281 2267.996094 1512.460938 C 2280.070312 1498.007812 2298.496094 1494.851562 2304.535156 1494.851562 C 2319.050781 1494.851562 2363.21875 1494.851562 2363.21875 1609.917969 C 2363.21875 1647.171875 2355.996094 1672.601562 2349.011719 1697.214844 C 2338.308594 1735.050781 2327.238281 1774.160156 2344.65625 1840.941406 C 2361.417969 1905.171875 2413.578125 1949.585938 2474.445312 1951.441406 C 2475.742188 1951.480469 2476.980469 1951.5 2478.257812 1951.5 C 2534.015625 1951.5 2580.796875 1913.859375 2600.941406 1852.417969 C 2625 1779.054688 2604.117188 1708.089844 2583.910156 1639.488281 C 2569.511719 1590.566406 2554.609375 1540 2554.609375 1486.53125 C 2554.609375 1374.558594 2588.574219 1339.609375 2613.347656 1326.585938 C 2657.359375 1318.515625 2694.964844 1309.789062 2726.707031 1300.191406 L 2677.546875 2123.945312 C 2663.417969 2124.894531 2648.652344 2125.398438 2633.226562 2125.398438 C 2403.628906 2125.378906 2033.847656 2019.679688 1625.304688 1791.539062 C 1596.871094 1775.648438 1568.59375 1759.355469 1540.726562 1742.769531 C 1541.5 1718.230469 1533.992188 1694.351562 1519.011719 1674.457031 Z M 1297.675781 2864.625 L 1204.371094 2864.625 C 1202.066406 2860.523438 1199.917969 2856.59375 1197.769531 2852.605469 C 1183.71875 2827.0625 1172.261719 2803.257812 1163.765625 2781.875 C 1155.445312 2760.9375 1149.773438 2742.222656 1147.390625 2726.722656 C 1146.597656 2721.496094 1144.78125 2716.660156 1142.300781 2712.246094 C 1135.800781 2700.675781 1124.265625 2692.410156 1110.542969 2690.554688 C 1097.207031 2688.753906 1084.199219 2693.378906 1074.890625 2702.320312 C 1071.019531 2706.054688 1067.730469 2710.445312 1065.390625 2715.574219 L 1064.710938 2717.046875 C 1058.441406 2731.039062 1051.203125 2747.101562 1044.0625 2764.457031 C 1035.953125 2784.253906 1028.035156 2805.753906 1021.667969 2827.972656 C 1018.222656 2840.046875 1015.164062 2852.296875 1012.921875 2864.625 L 578.480469 2864.625 C 587.980469 2780.984375 579.175781 2682.988281 574.183594 2638.980469 C 571.9375 2619.472656 556.839844 2603.933594 537.390625 2601.167969 C 517.976562 2598.359375 499.105469 2609.0625 491.5 2627.175781 C 467.367188 2684.613281 399.105469 2785.203125 317.371094 2864.625 L 165.886719 2864.625 C 354.648438 2676.988281 378.878906 2429.746094 381.996094 2280.40625 L 1244.066406 2280.40625 C 1245.246094 2347.945312 1248.441406 2462.296875 1257.207031 2578.078125 C 1258.871094 2600.410156 1260.789062 2622.78125 1262.878906 2644.863281 C 1265.570312 2672.789062 1268.605469 2700.210938 1272.03125 2726.566406 C 1275.128906 2750.117188 1278.554688 2772.835938 1282.328125 2794.164062 C 1286.722656 2818.855469 1291.617188 2841.691406 1297.039062 2862.070312 C 1297.230469 2862.902344 1297.464844 2863.792969 1297.675781 2864.625 Z M 716.839844 1535.898438 C 717.730469 1526.300781 718.371094 1516.933594 718.777344 1507.894531 C 718.835938 1506.308594 718.835938 1504.78125 718.796875 1503.191406 L 711.382812 1248.695312 C 711.113281 1241.824219 710.859375 1234.953125 710.648438 1228.105469 C 709.601562 1198.84375 708.578125 1169.621094 707.570312 1140.554688 C 707.511719 1138.351562 707.453125 1136.164062 707.375 1133.976562 C 705.152344 1069.339844 703.003906 1005.382812 700.914062 943.011719 C 695.839844 792.179688 691.101562 650.136719 686.417969 533.078125 C 684.597656 487.8125 696.886719 450.910156 721.96875 424.824219 C 745.542969 400.285156 780.246094 388.402344 819.667969 388.402344 L 821.3125 388.402344 C 821.738281 388.402344 822.128906 388.402344 822.535156 388.402344 L 824.21875 388.402344 C 863.621094 388.402344 898.324219 400.285156 921.898438 424.824219 C 946.980469 450.929688 959.25 487 957.46875 532.265625 C 952.785156 649.304688 948.046875 791.753906 942.953125 942.605469 C 941.988281 972.019531 940.980469 1001.839844 939.972656 1031.914062 C 939.199219 1054.515625 938.445312 1077.273438 937.652344 1100.148438 C 937.535156 1104.097656 937.382812 1108.0625 937.265625 1112.011719 C 936.625 1130.746094 935.949219 1149.535156 935.308594 1168.382812 C 935.214844 1171.730469 935.058594 1175.058594 934.960938 1178.410156 C 934.863281 1181.699219 934.769531 1184.988281 934.632812 1188.296875 C 933.976562 1207.105469 933.335938 1225.917969 932.660156 1244.785156 C 932.601562 1246.160156 932.5625 1247.535156 932.523438 1248.90625 L 932.289062 1255.566406 L 930.335938 1323.027344 L 925.050781 1503.078125 C 925.03125 1504.664062 925.03125 1506.269531 925.089844 1507.855469 C 929.96875 1621.859375 969.375 1725.894531 1040.5 1815.707031 L 601.199219 1815.707031 C 679.855469 1718.191406 708.964844 1617.777344 716.839844 1535.898438 Z M 1781.238281 1105.375 C 1896.125 1105.375 2000.964844 1107.832031 2095.628906 1112.011719 C 2379.046875 1124.570312 2571.351562 1152.863281 2670.367188 1178.410156 C 2571.351562 1203.953125 2379.046875 1232.226562 2095.628906 1244.785156 C 2000.964844 1248.984375 1896.125 1251.421875 1781.238281 1251.421875 C 1666.3125 1251.421875 1561.492188 1248.984375 1466.851562 1244.785156 C 1302.785156 1237.527344 1169.28125 1224.988281 1066.703125 1210.746094 C 1067.074219 1199.964844 1067.460938 1189.1875 1067.828125 1178.410156 C 1068.195312 1167.492188 1068.601562 1156.636719 1068.96875 1145.761719 C 1171.238281 1131.652344 1303.96875 1119.230469 1466.851562 1112.011719 C 1561.492188 1107.832031 1666.3125 1105.375 1781.238281 1105.375 Z M 2520.21875 1658.222656 C 2539.144531 1722.488281 2555.460938 1778.011719 2537.847656 1831.75 C 2526.46875 1866.527344 2504.039062 1885.996094 2476.476562 1885.105469 C 2451.375 1884.332031 2419.519531 1864.9375 2408.890625 1824.183594 C 2396.023438 1774.875 2403.105469 1749.871094 2412.917969 1715.289062 C 2420.738281 1687.695312 2429.582031 1656.402344 2429.582031 1609.917969 C 2429.582031 1452.046875 2351.238281 1428.457031 2304.535156 1428.457031 C 2278.988281 1428.457031 2242.601562 1439.332031 2217.054688 1469.867188 C 2190.90625 1501.140625 2182.546875 1544.277344 2192.203125 1598.074219 C 2215.429688 1727.5 2196.964844 1757.226562 2188.101562 1771.507812 C 2172 1797.402344 2149.46875 1810.269531 2126.285156 1806.746094 C 2100.347656 1802.820312 2079.425781 1779.539062 2070.292969 1744.511719 C 2057.710938 1696.304688 2070.234375 1656.617188 2084.730469 1610.636719 C 2096.089844 1574.503906 2108.960938 1533.574219 2108.960938 1485.988281 C 2108.960938 1455.992188 2108.941406 1413.304688 2092.742188 1377.636719 C 2248.621094 1370.882812 2391.6875 1359.058594 2510.925781 1342.765625 C 2512.011719 1342.609375 2513 1342.472656 2514.042969 1342.320312 C 2496.835938 1379.359375 2488.207031 1427.199219 2488.207031 1486.53125 C 2488.207031 1549.558594 2505.257812 1607.285156 2520.21875 1658.222656 Z M 1761.921875 1521.984375 C 1773.691406 1564.925781 1780.214844 1592.695312 1766.644531 1621.066406 C 1748.550781 1659.035156 1713.382812 1658.761719 1702.992188 1657.777344 C 1684.816406 1656.035156 1661.476562 1645.777344 1655.398438 1622.574219 C 1648.566406 1596.199219 1657.914062 1558.828125 1666.972656 1522.660156 C 1674.152344 1494.019531 1681.566406 1464.410156 1681.566406 1437.320312 C 1681.566406 1423.65625 1679.535156 1403.625 1670.476562 1383.363281 C 1697.628906 1383.773438 1724.976562 1384.003906 1752.535156 1384.121094 C 1748.222656 1396.582031 1745.742188 1411.25 1745.742188 1428.589844 C 1745.742188 1462.941406 1754.335938 1494.308594 1761.921875 1521.984375 Z M 390.203125 2147.652344 L 390.203125 2041.429688 C 390.203125 2011.800781 404.195312 1985.425781 425.871094 1968.394531 C 441.644531 1955.953125 461.542969 1948.480469 483.160156 1948.480469 L 1153.742188 1948.480469 C 1177.488281 1948.480469 1199.144531 1957.539062 1215.617188 1972.265625 C 1234.640625 1989.277344 1246.660156 2013.949219 1246.660156 2041.429688 L 1246.660156 2147.652344 Z M 2862.609375 2043.539062 C 2852.082031 2062.445312 2835.089844 2078.082031 2812.582031 2090.527344 L 2827.96875 1832.464844 C 2876.660156 1921.117188 2889.511719 1995.410156 2862.609375 2043.539062 "/>
<path style=" stroke:none;fill-rule:nonzero;fill:rgb(29.40979%,14.118958%,21.179199%);fill-opacity:1;" d="M 819.574219 611.917969 C 870.804688 611.917969 912.492188 570.214844 912.492188 518.96875 C 912.492188 467.726562 870.804688 426.023438 819.574219 426.023438 C 768.285156 426.023438 726.59375 467.726562 726.59375 518.96875 C 726.59375 570.214844 768.285156 611.917969 819.574219 611.917969 Z M 819.574219 479.144531 C 841.519531 479.144531 859.402344 497.003906 859.402344 518.96875 C 859.402344 540.933594 841.519531 558.796875 819.574219 558.796875 C 797.566406 558.796875 779.742188 540.933594 779.742188 518.96875 C 779.742188 497.003906 797.566406 479.144531 819.574219 479.144531 "/>
</g>
</svg>
