<?xml version="1.0" encoding="UTF-8"?>
<svg xmlns="http://www.w3.org/2000/svg" xmlns:xlink="http://www.w3.org/1999/xlink" width="3000pt" height="2999.999989pt" viewBox="0 0 3000 2999.999989" version="1.2">
<defs>
<clipPath id="clip1">
  <path d="M 478 472.5 L 3000 472.5 L 3000 3000 L 478 3000 Z M 478 472.5 "/>
</clipPath>
</defs>
<g id="surface1">
<path style=" stroke:none;fill-rule:nonzero;fill:rgb(29.40979%,14.118958%,21.179199%);fill-opacity:1;" d="M 2231.988281 1754.949219 L 2799.625 1263.03125 L 2306.433594 1829.542969 Z M 2231.988281 1754.949219 "/>
<g clip-path="url(#clip1)" clip-rule="nonzero">
<path style="fill:none;stroke-width:110;stroke-linecap:butt;stroke-linejoin:miter;stroke:rgb(19.999695%,19.999695%,19.999695%);stroke-opacity:1;stroke-miterlimit:10;" d="M 2419.959314 2286.718959 L 2569.998632 2436.444361 " transform="matrix(0.95816,0,0,-0.95816,-349.728495,4283.519906)"/>
</g>
<path style=" stroke:none;fill-rule:nonzero;fill:rgb(29.40979%,14.118958%,21.179199%);fill-opacity:1;" d="M 2203.355469 1937.863281 C 2166.828125 1945.496094 2131.046875 1922.140625 2123.410156 1885.613281 C 2115.773438 1849.121094 2139.167969 1813.339844 2175.660156 1805.664062 C 2212.152344 1798.03125 2247.933594 1821.421875 2255.570312 1857.914062 C 2263.242188 1894.40625 2239.847656 1930.226562 2203.355469 1937.863281 Z M 2156.757812 1715.464844 C 2070.414062 1733.578125 2015.09375 1818.203125 2033.207031 1904.511719 C 2051.285156 1990.859375 2135.949219 2046.140625 2222.257812 2028.0625 C 2308.566406 2009.984375 2363.886719 1925.359375 2345.808594 1839.011719 C 2327.691406 1752.703125 2243.066406 1697.386719 2156.757812 1715.464844 "/>
<path style=" stroke:none;fill-rule:nonzero;fill:rgb(29.40979%,14.118958%,21.179199%);fill-opacity:1;" d="M 2082.6875 794.246094 C 1789.515625 821.792969 1524.597656 961.886719 1336.785156 1188.664062 C 1148.929688 1415.4375 1060.636719 1701.800781 1088.1875 1994.976562 C 1134.859375 2491.386719 1505.546875 2880.714844 1971.265625 2973.347656 C 2073.40625 2993.671875 2180.113281 2999.699219 2288.957031 2989.480469 C 2362.988281 2982.519531 2434.960938 2968.519531 2504.617188 2947.558594 C 2493.6875 2930.15625 2485.265625 2910.957031 2479.726562 2890.59375 C 2406.742188 2905.941406 2331.773438 2913.277344 2262.457031 2910.320312 C 1734.867188 2887.710938 1281.800781 2507.144531 1232.433594 1981.425781 C 1208.480469 1726.765625 1285.171875 1478.058594 1448.320312 1281.074219 C 1611.46875 1084.050781 1841.578125 962.410156 2096.238281 938.457031 C 2397.871094 910.121094 2677.535156 996.769531 2879.609375 1223.097656 L 3000.277344 1145.46875 C 2767.660156 884.96875 2429.945312 761.605469 2082.6875 794.246094 "/>
<path style=" stroke:none;fill-rule:nonzero;fill:rgb(29.40979%,14.118958%,21.179199%);fill-opacity:1;" d="M 1964.601562 885.53125 L 930.238281 842.414062 L 2112.742188 793.121094 Z M 1964.601562 885.53125 "/>
<path style=" stroke:none;fill-rule:nonzero;fill:rgb(29.40979%,14.118958%,21.179199%);fill-opacity:1;" d="M 1192.046875 1948.566406 L 298.414062 1905.449219 L 1192.046875 1862.332031 Z M 1192.046875 1948.566406 "/>
<path style=" stroke:none;fill-rule:nonzero;fill:rgb(29.40979%,14.118958%,21.179199%);fill-opacity:1;" d="M 2061.652344 2991.050781 L -0.1875 2925.890625 L 1917.96875 2865.253906 Z M 2061.652344 2991.050781 "/>
<path style=" stroke:none;fill-rule:nonzero;fill:rgb(29.40979%,14.118958%,21.179199%);fill-opacity:1;" d="M 1315.449219 2471.136719 L 439.929688 2439.398438 L 1315.449219 2407.695312 Z M 1315.449219 2471.136719 "/>
<path style=" stroke:none;fill-rule:nonzero;fill:rgb(29.40979%,14.118958%,21.179199%);fill-opacity:1;" d="M 1294.191406 1404.472656 L 734.378906 1372.769531 L 1294.191406 1341.03125 Z M 1294.191406 1404.472656 "/>
<path style=" stroke:none;fill-rule:nonzero;fill:rgb(29.40979%,14.118958%,21.179199%);fill-opacity:1;" d="M 1203.765625 1674.703125 L 643.914062 1643.003906 L 1203.765625 1611.261719 Z M 1203.765625 1674.703125 "/>
<path style=" stroke:none;fill-rule:nonzero;fill:rgb(29.40979%,14.118958%,21.179199%);fill-opacity:1;" d="M 1213.53125 2204.796875 L 348.457031 2173.058594 L 1213.53125 2141.359375 Z M 1213.53125 2204.796875 "/>
<path style=" stroke:none;fill-rule:nonzero;fill:rgb(29.40979%,14.118958%,21.179199%);fill-opacity:1;" d="M 1507.378906 2731.523438 L 273.523438 2699.824219 L 1507.378906 2668.085938 Z M 1507.378906 2731.523438 "/>
<path style=" stroke:none;fill-rule:nonzero;fill:rgb(29.40979%,14.118958%,21.179199%);fill-opacity:1;" d="M 1507.378906 1137.085938 L 947.566406 1105.382812 L 1507.378906 1073.644531 Z M 1507.378906 1137.085938 "/>
<path style=" stroke:none;fill-rule:nonzero;fill:rgb(29.40979%,14.118958%,21.179199%);fill-opacity:1;" d="M 2306.507812 626.527344 L 2064.609375 626.527344 C 2053.007812 626.527344 2043.613281 617.132812 2043.613281 605.570312 L 2043.613281 494.21875 C 2043.613281 482.617188 2053.007812 473.222656 2064.609375 473.222656 L 2306.507812 473.222656 C 2318.113281 473.222656 2327.507812 482.617188 2327.507812 494.21875 L 2327.507812 605.570312 C 2327.507812 617.132812 2318.113281 626.527344 2306.507812 626.527344 "/>
<path style=" stroke:none;fill-rule:nonzero;fill:rgb(29.40979%,14.118958%,21.179199%);fill-opacity:1;" d="M 2256.46875 767.070312 L 2114.652344 767.070312 L 2114.652344 647.300781 L 2256.46875 647.300781 L 2256.46875 767.070312 "/>
<path style=" stroke:none;fill-rule:nonzero;fill:rgb(29.40979%,14.118958%,21.179199%);fill-opacity:1;" d="M 1814.328125 1210.109375 L 1758.1875 1112.796875 L 1724.988281 1131.957031 L 1781.128906 1229.308594 C 1792.023438 1222.648438 1803.101562 1216.246094 1814.328125 1210.109375 "/>
<path style=" stroke:none;fill-rule:nonzero;fill:rgb(29.40979%,14.118958%,21.179199%);fill-opacity:1;" d="M 2185.691406 1115.640625 C 2192.128906 1115.640625 2198.527344 1115.976562 2204.929688 1116.125 L 2204.964844 1003.429688 L 2166.640625 1003.394531 L 2166.601562 1116.125 C 2172.964844 1115.941406 2179.289062 1115.640625 2185.691406 1115.640625 "/>
<path style=" stroke:none;fill-rule:nonzero;fill:rgb(29.40979%,14.118958%,21.179199%);fill-opacity:1;" d="M 1523.25 1487.152344 L 1425.898438 1430.933594 L 1406.738281 1464.132812 L 1504.050781 1520.3125 C 1510.152344 1509.085938 1516.589844 1498.042969 1523.25 1487.152344 "/>
<path style=" stroke:none;fill-rule:nonzero;fill:rgb(29.40979%,14.118958%,21.179199%);fill-opacity:1;" d="M 2590.402344 1229.421875 L 2646.617188 1132.109375 L 2613.457031 1112.945312 L 2557.238281 1210.222656 C 2568.46875 1216.359375 2579.507812 1222.757812 2590.402344 1229.421875 "/>
<path style=" stroke:none;fill-rule:nonzero;fill:rgb(29.40979%,14.118958%,21.179199%);fill-opacity:1;" d="M 1409.46875 1891.863281 C 1409.46875 1885.425781 1409.804688 1879.023438 1409.957031 1872.625 L 1297.257812 1872.585938 L 1297.222656 1910.914062 L 1409.957031 1910.949219 C 1409.804688 1904.585938 1409.46875 1898.261719 1409.46875 1891.863281 "/>
<path style=" stroke:none;fill-rule:nonzero;fill:rgb(29.40979%,14.118958%,21.179199%);fill-opacity:1;" d="M 1503.9375 2263.222656 L 1406.625 2319.402344 L 1425.789062 2352.601562 L 1523.136719 2296.386719 C 1516.476562 2285.53125 1510.074219 2274.453125 1503.9375 2263.222656 "/>
<path style=" stroke:none;fill-rule:nonzero;fill:rgb(29.40979%,14.118958%,21.179199%);fill-opacity:1;" d="M 2185.691406 2668.085938 C 2179.214844 2668.085938 2172.851562 2667.746094 2166.414062 2667.597656 L 2166.414062 2780.292969 L 2204.742188 2780.332031 L 2204.742188 2667.636719 C 2198.378906 2667.746094 2192.089844 2668.085938 2185.691406 2668.085938 "/>
<path style=" stroke:none;fill-rule:nonzero;fill:rgb(29.40979%,14.118958%,21.179199%);fill-opacity:1;" d="M 1780.980469 2554.300781 L 1724.761719 2651.652344 L 1757.960938 2670.816406 L 1814.140625 2573.503906 C 1802.914062 2567.402344 1791.871094 2560.964844 1780.980469 2554.300781 "/>
</g>
</svg>
