<?xml version="1.0" encoding="UTF-8"?>
<svg xmlns="http://www.w3.org/2000/svg" xmlns:xlink="http://www.w3.org/1999/xlink" width="3000pt" height="2999.999989pt" viewBox="0 0 3000 2999.999989" version="1.2">
<defs>
<clipPath id="clip1">
  <path d="M 1896 1544 L 2737.5 1544 L 2737.5 2294 L 1896 2294 Z M 1896 1544 "/>
</clipPath>
</defs>
<g id="surface1">
<path style=" stroke:none;fill-rule:nonzero;fill:rgb(29.40979%,14.118958%,21.179199%);fill-opacity:1;" d="M 1287.609375 2333.511719 L 893.03125 2856.5 L 890.695312 2555.316406 C 890.695312 2541.308594 883.691406 2529.632812 872.019531 2520.292969 C 862.679688 2513.289062 853.339844 2510.957031 844 2510.957031 C 841.667969 2510.957031 836.996094 2510.957031 834.664062 2510.957031 L 491.449219 2585.667969 L 825.324219 2212.105469 C 811.316406 2177.082031 801.976562 2139.726562 794.972656 2107.039062 L 374.710938 2581 C 356.035156 2602.011719 353.699219 2632.363281 367.707031 2658.046875 C 381.71875 2683.726562 409.734375 2695.402344 437.75 2693.066406 C 440.085938 2693.066406 440.085938 2693.066406 442.421875 2693.066406 L 799.640625 2613.683594 L 804.308594 2928.878906 C 806.644531 2956.894531 825.324219 2982.578125 853.339844 2991.917969 C 860.34375 2994.253906 867.347656 2994.253906 874.351562 2994.253906 C 895.367188 2994.253906 916.378906 2984.914062 930.386719 2966.234375 L 1357.652344 2396.550781 C 1329.632812 2377.875 1306.285156 2354.527344 1287.609375 2333.511719 Z M 1287.609375 2333.511719 "/>
<path style=" stroke:none;fill-rule:nonzero;fill:rgb(29.40979%,14.118958%,21.179199%);fill-opacity:1;" d="M 2422.304688 2401.222656 L 2298.5625 2401.222656 L 2464.332031 2588.003906 L 2121.121094 2513.289062 C 2107.113281 2510.957031 2093.101562 2513.289062 2081.429688 2522.628906 C 2069.753906 2531.96875 2062.75 2543.640625 2062.75 2557.652344 L 2060.417969 2856.5 L 1675.179688 2345.1875 C 1656.5 2368.535156 1633.152344 2389.546875 1607.472656 2408.226562 L 2027.730469 2968.570312 C 2041.738281 2984.914062 2060.417969 2994.253906 2081.429688 2994.253906 C 2088.433594 2994.253906 2095.4375 2994.253906 2102.441406 2991.917969 C 2130.460938 2982.578125 2149.136719 2959.230469 2151.472656 2928.878906 L 2156.140625 2616.019531 L 2513.363281 2695.402344 C 2515.695312 2695.402344 2515.695312 2695.402344 2518.03125 2695.402344 C 2546.046875 2700.070312 2574.066406 2686.0625 2588.074219 2660.378906 C 2602.082031 2634.699219 2599.75 2604.347656 2581.070312 2581 Z M 2422.304688 2401.222656 "/>
<path style=" stroke:none;fill-rule:nonzero;fill:rgb(29.40979%,14.118958%,21.179199%);fill-opacity:1;" d="M 1476.722656 496.050781 C 1103.160156 496.050781 799.640625 799.570312 799.640625 1173.132812 C 799.640625 1546.695312 1103.160156 1850.214844 1476.722656 1850.214844 C 1850.289062 1850.214844 2153.808594 1546.695312 2153.808594 1173.132812 C 2153.808594 799.570312 1850.289062 496.050781 1476.722656 496.050781 Z M 1476.722656 1756.824219 C 1154.527344 1756.824219 893.03125 1495.332031 893.03125 1173.132812 C 893.03125 850.933594 1154.527344 589.441406 1476.722656 589.441406 C 1798.921875 589.441406 2060.417969 850.933594 2060.417969 1173.132812 C 2060.417969 1495.332031 1798.921875 1756.824219 1476.722656 1756.824219 Z M 1476.722656 1756.824219 "/>
<path style=" stroke:none;fill-rule:nonzero;fill:rgb(29.40979%,14.118958%,21.179199%);fill-opacity:1;" d="M 1787.25 1061.0625 L 1600.46875 1035.382812 L 1518.75 871.945312 C 1511.746094 855.605469 1495.402344 846.265625 1476.722656 846.265625 C 1458.046875 846.265625 1444.039062 855.605469 1434.699219 871.945312 L 1352.980469 1035.382812 L 1166.199219 1061.0625 C 1147.523438 1063.398438 1133.511719 1075.070312 1128.84375 1093.75 C 1124.175781 1110.09375 1128.84375 1128.773438 1140.515625 1142.78125 L 1273.597656 1268.859375 L 1243.246094 1446.300781 C 1240.914062 1462.644531 1247.917969 1481.320312 1261.925781 1492.996094 C 1275.933594 1504.667969 1294.613281 1504.667969 1310.957031 1497.664062 L 1476.722656 1413.613281 L 1642.492188 1497.664062 C 1649.496094 1500 1656.5 1502.335938 1663.503906 1502.335938 C 1672.84375 1502.335938 1682.183594 1500 1691.523438 1492.996094 C 1705.53125 1481.320312 1712.535156 1464.976562 1710.199219 1446.300781 L 1679.847656 1266.523438 L 1812.929688 1140.445312 C 1826.9375 1128.773438 1831.609375 1110.09375 1824.605469 1091.414062 C 1819.933594 1075.070312 1803.59375 1063.398438 1787.25 1061.0625 Z M 1595.796875 1217.492188 C 1584.125 1229.167969 1579.453125 1243.175781 1581.789062 1259.519531 L 1600.46875 1369.253906 L 1495.402344 1315.554688 C 1488.398438 1313.21875 1481.394531 1310.882812 1474.390625 1310.882812 C 1467.386719 1310.882812 1460.378906 1313.21875 1453.375 1315.554688 L 1348.3125 1369.253906 L 1366.988281 1259.519531 C 1369.324219 1243.175781 1364.65625 1229.167969 1352.980469 1217.492188 L 1271.265625 1140.445312 L 1385.667969 1124.101562 C 1399.675781 1121.765625 1413.683594 1112.429688 1420.691406 1098.417969 L 1472.054688 995.691406 L 1523.417969 1098.417969 C 1530.425781 1112.429688 1544.433594 1121.765625 1558.441406 1124.101562 L 1672.84375 1140.445312 Z M 1595.796875 1217.492188 "/>
<path style=" stroke:none;fill-rule:nonzero;fill:rgb(29.40979%,14.118958%,21.179199%);fill-opacity:1;" d="M 1714.871094 2146.730469 C 1733.546875 2142.0625 1770.90625 2160.738281 1803.59375 2177.082031 L 1803.59375 2074.351562 C 1766.234375 2058.011719 1728.878906 2048.671875 1693.859375 2055.675781 C 1640.15625 2067.347656 1602.800781 2118.714844 1565.445312 2167.746094 C 1542.097656 2198.097656 1507.074219 2244.792969 1488.398438 2244.792969 C 1469.71875 2244.792969 1432.363281 2198.097656 1411.351562 2167.746094 C 1373.996094 2118.714844 1334.304688 2069.683594 1280.605469 2058.011719 C 1273.597656 2055.675781 1264.261719 2055.675781 1257.253906 2055.675781 C 1210.558594 2055.675781 1163.863281 2081.359375 1117.167969 2104.707031 C 1082.148438 2123.382812 1028.449219 2151.402344 1012.105469 2142.0625 C 995.761719 2135.058594 984.085938 2076.6875 977.082031 2044 C 965.410156 1983.296875 951.402344 1920.257812 907.039062 1885.238281 C 862.679688 1852.550781 797.304688 1854.886719 734.265625 1857.21875 C 699.246094 1859.554688 636.207031 1861.890625 626.867188 1847.878906 C 615.195312 1833.871094 631.539062 1775.503906 638.542969 1740.480469 C 654.886719 1682.113281 668.894531 1621.410156 645.546875 1572.378906 C 622.199219 1523.347656 561.496094 1497.664062 503.125 1474.316406 C 472.773438 1460.308594 412.070312 1436.960938 409.734375 1420.617188 C 405.066406 1404.273438 447.089844 1355.246094 468.105469 1329.5625 C 507.792969 1282.867188 549.820312 1233.835938 549.820312 1180.136719 C 549.820312 1126.4375 507.792969 1077.40625 465.769531 1033.046875 C 442.421875 1007.363281 400.394531 960.667969 405.066406 944.324219 C 409.734375 927.980469 465.769531 902.300781 498.457031 888.289062 C 556.824219 862.609375 615.195312 836.925781 638.542969 787.894531 C 661.890625 738.863281 645.546875 678.160156 629.203125 619.792969 C 619.863281 584.769531 603.519531 526.402344 615.195312 512.390625 C 626.867188 496.050781 689.90625 498.382812 727.261719 498.382812 C 787.96875 500.71875 853.339844 500.71875 893.03125 468.03125 C 937.390625 433.011719 949.066406 369.972656 960.738281 309.265625 C 967.746094 274.246094 979.417969 215.875 993.425781 208.871094 C 1009.769531 199.535156 1065.804688 227.550781 1098.492188 243.894531 C 1154.527344 271.910156 1210.558594 299.929688 1264.261719 288.253906 C 1317.960938 276.582031 1355.316406 225.214844 1392.671875 176.183594 C 1411.351562 145.832031 1446.371094 99.136719 1465.050781 99.136719 C 1483.726562 99.136719 1521.085938 145.832031 1542.097656 176.183594 C 1579.453125 225.214844 1619.144531 274.246094 1672.84375 285.917969 C 1726.542969 297.59375 1782.578125 267.242188 1836.277344 239.222656 C 1873.636719 220.546875 1927.335938 192.527344 1943.679688 201.867188 C 1960.019531 208.871094 1971.695312 267.242188 1978.699219 302.261719 C 1990.375 362.96875 2004.382812 426.003906 2048.742188 461.027344 C 2093.101562 493.714844 2158.476562 491.378906 2221.515625 489.042969 C 2256.539062 486.710938 2319.574219 484.375 2328.914062 498.382812 C 2340.589844 512.390625 2324.246094 570.761719 2317.242188 605.78125 C 2300.898438 664.152344 2286.890625 724.855469 2310.238281 773.886719 C 2333.585938 822.917969 2394.289062 848.597656 2452.65625 871.945312 C 2483.011719 885.957031 2543.714844 909.304688 2546.046875 925.648438 C 2550.71875 941.988281 2508.691406 991.019531 2487.679688 1016.703125 C 2447.988281 1063.398438 2405.960938 1112.429688 2405.960938 1166.128906 C 2405.960938 1219.828125 2447.988281 1268.859375 2490.015625 1313.21875 C 2513.363281 1338.902344 2555.386719 1385.597656 2550.71875 1401.941406 C 2546.046875 1418.285156 2490.015625 1443.964844 2457.328125 1457.972656 C 2450.324219 1460.308594 2443.320312 1464.980469 2436.3125 1467.3125 C 2443.320312 1469.648438 2447.988281 1471.984375 2454.992188 1474.316406 C 2483.007812 1485.992188 2508.691406 1504.667969 2529.707031 1528.015625 C 2583.40625 1502.335938 2630.101562 1474.316406 2641.773438 1422.953125 C 2655.78125 1359.914062 2606.753906 1303.878906 2560.058594 1250.179688 C 2534.375 1222.164062 2499.351562 1182.472656 2499.351562 1163.792969 C 2499.351562 1145.113281 2534.375 1105.425781 2557.722656 1075.070312 C 2604.417969 1021.371094 2651.113281 965.335938 2637.105469 902.300781 C 2620.761719 839.261719 2553.054688 811.242188 2487.679688 783.226562 C 2452.65625 766.882812 2401.292969 748.203125 2394.289062 729.527344 C 2384.949219 713.183594 2398.957031 664.152344 2408.296875 626.796875 C 2424.640625 561.421875 2443.320312 486.710938 2401.292969 435.34375 C 2361.601562 386.316406 2289.222656 390.984375 2216.847656 393.320312 C 2177.15625 395.652344 2121.121094 397.988281 2104.777344 383.980469 C 2088.433594 369.972656 2076.757812 318.605469 2069.753906 281.25 C 2055.746094 213.542969 2041.738281 143.5 1983.367188 115.480469 C 1925 87.464844 1859.625 122.484375 1794.253906 155.171875 C 1759.230469 173.851562 1712.535156 197.199219 1693.855469 192.527344 C 1672.84375 187.859375 1640.15625 145.832031 1616.808594 115.480469 C 1574.785156 61.78125 1530.425781 5.746094 1465.050781 5.746094 C 1399.675781 5.746094 1357.652344 64.117188 1313.289062 122.484375 C 1289.941406 152.835938 1259.589844 194.863281 1238.578125 199.53125 C 1217.566406 204.203125 1170.871094 180.855469 1135.847656 162.175781 C 1072.808594 129.488281 1005.101562 96.804688 946.730469 124.820312 C 888.363281 152.835938 874.351562 222.882812 862.679688 292.925781 C 855.675781 330.28125 846.335938 381.644531 829.992188 395.652344 C 815.984375 407.328125 762.285156 407.328125 724.929688 404.992188 C 652.550781 402.65625 577.835938 402.65625 538.144531 454.023438 C 496.121094 505.386719 517.132812 580.101562 535.8125 645.472656 C 545.152344 680.496094 559.160156 729.527344 552.15625 745.871094 C 542.816406 764.546875 493.785156 785.558594 458.765625 801.902344 C 393.390625 829.921875 328.015625 860.273438 314.007812 923.3125 C 300 986.351562 349.03125 1042.386719 395.726562 1096.085938 C 421.40625 1124.101562 456.429688 1163.792969 456.429688 1182.472656 C 456.429688 1201.148438 421.40625 1240.839844 398.058594 1271.191406 C 351.363281 1324.890625 304.667969 1380.925781 318.679688 1443.964844 C 335.019531 1507.003906 402.730469 1535.023438 468.101562 1563.039062 C 503.125 1579.382812 554.488281 1598.058594 561.492188 1616.738281 C 570.832031 1633.082031 556.824219 1684.445312 547.484375 1719.46875 C 531.140625 1784.84375 512.464844 1859.554688 554.488281 1910.917969 C 594.179688 1959.949219 666.558594 1955.28125 738.9375 1952.945312 C 778.628906 1950.609375 834.664062 1948.277344 851.003906 1962.285156 C 867.347656 1973.957031 879.023438 2027.660156 886.027344 2065.015625 C 900.035156 2132.722656 914.042969 2202.765625 972.414062 2230.785156 C 1030.78125 2258.800781 1096.15625 2223.777344 1161.53125 2191.09375 C 1196.550781 2172.414062 1243.246094 2149.066406 1261.925781 2153.734375 C 1282.9375 2158.40625 1315.625 2200.429688 1338.972656 2230.785156 C 1381 2286.816406 1425.359375 2342.851562 1490.734375 2342.851562 C 1556.105469 2342.851562 1598.132812 2284.484375 1642.492188 2226.113281 C 1663.503906 2193.425781 1693.859375 2151.402344 1714.871094 2146.730469 Z M 1714.871094 2146.730469 "/>
<g clip-path="url(#clip1)" clip-rule="nonzero">
<path style=" stroke:none;fill-rule:nonzero;fill:rgb(29.40979%,14.118958%,21.179199%);fill-opacity:1;" d="M 2718.820312 1980.960938 C 2730.496094 1962.285156 2737.5 1938.9375 2737.5 1913.253906 C 2737.5 1840.875 2676.796875 1782.507812 2599.75 1782.507812 L 2518.03125 1782.507812 C 2520.367188 1766.164062 2522.699219 1752.15625 2520.367188 1742.816406 C 2515.695312 1703.125 2504.023438 1598.058594 2417.636719 1558.371094 C 2398.957031 1549.03125 2377.945312 1544.359375 2359.265625 1544.359375 C 2356.933594 1544.359375 2354.597656 1544.359375 2352.261719 1544.359375 C 2324.246094 1546.695312 2296.226562 1556.035156 2272.878906 1574.710938 C 2216.847656 1619.074219 2219.179688 1684.445312 2221.515625 1710.128906 C 2221.515625 1712.464844 2221.515625 1717.132812 2221.515625 1719.46875 L 2221.515625 1731.140625 C 2209.839844 1756.824219 2174.820312 1810.523438 2160.8125 1831.539062 C 2153.808594 1833.871094 2144.46875 1836.207031 2137.464844 1838.542969 C 2121.121094 1831.539062 2102.441406 1826.867188 2083.765625 1826.867188 L 1990.375 1826.867188 C 1939.007812 1826.867188 1896.984375 1868.894531 1896.984375 1920.257812 L 1896.984375 2200.429688 C 1896.984375 2251.796875 1939.007812 2293.820312 1990.375 2293.820312 L 2083.765625 2293.820312 C 2107.113281 2293.820312 2125.789062 2284.484375 2142.132812 2272.808594 C 2144.46875 2272.808594 2144.46875 2272.808594 2146.804688 2272.808594 C 2156.140625 2272.808594 2165.480469 2272.808594 2174.820312 2272.808594 C 2179.488281 2272.808594 2184.160156 2272.808594 2188.828125 2272.808594 C 2198.167969 2279.8125 2212.175781 2286.816406 2230.855469 2291.488281 C 2237.859375 2293.820312 2247.199219 2293.820312 2254.203125 2293.820312 L 2534.375 2293.820312 C 2609.085938 2293.820312 2669.792969 2233.117188 2669.792969 2158.40625 C 2669.792969 2158.40625 2669.792969 2156.070312 2669.792969 2156.070312 C 2686.136719 2132.722656 2695.472656 2107.039062 2695.472656 2076.6875 C 2695.472656 2072.019531 2695.472656 2069.683594 2695.472656 2065.015625 C 2709.484375 2044 2716.488281 2020.652344 2716.488281 1994.972656 C 2721.15625 1990.300781 2718.820312 1985.632812 2718.820312 1980.960938 Z M 2083.765625 2200.429688 L 1990.375 2200.429688 L 1990.375 1920.257812 L 2083.765625 1920.257812 Z M 2599.75 1955.28125 C 2599.75 1955.28125 2625.429688 1976.292969 2625.429688 1994.972656 C 2625.429688 2018.320312 2606.753906 2036.996094 2581.070312 2036.996094 C 2581.070312 2036.996094 2604.417969 2055.675781 2604.417969 2079.023438 C 2604.417969 2102.371094 2585.738281 2121.050781 2562.390625 2121.050781 C 2562.390625 2121.050781 2578.734375 2139.726562 2578.734375 2163.074219 C 2578.734375 2186.421875 2560.058594 2205.101562 2536.710938 2205.101562 L 2256.535156 2205.101562 C 2242.527344 2200.429688 2230.855469 2188.757812 2216.847656 2184.089844 C 2214.511719 2184.089844 2207.507812 2181.753906 2198.167969 2181.753906 C 2191.164062 2181.753906 2184.160156 2181.753906 2177.15625 2181.753906 L 2177.15625 1927.261719 C 2198.167969 1920.257812 2221.515625 1913.253906 2221.515625 1913.253906 C 2226.183594 1901.582031 2312.570312 1775.503906 2312.570312 1749.820312 C 2312.570312 1740.480469 2312.570312 1733.476562 2312.570312 1724.136719 C 2312.570312 1698.457031 2305.566406 1670.4375 2328.914062 1651.761719 C 2335.917969 1644.757812 2345.257812 1640.085938 2356.933594 1640.085938 C 2356.933594 1640.085938 2359.265625 1640.085938 2359.265625 1640.085938 C 2366.269531 1640.085938 2373.273438 1642.421875 2380.28125 1644.757812 C 2417.636719 1661.097656 2424.640625 1719.46875 2429.308594 1752.15625 C 2431.644531 1770.832031 2403.628906 1868.894531 2398.957031 1875.898438 L 2602.082031 1875.898438 C 2625.429688 1875.898438 2646.441406 1889.90625 2646.441406 1913.253906 C 2644.109375 1936.601562 2625.429688 1955.28125 2599.75 1955.28125 Z M 2599.75 1955.28125 "/>
</g>
</g>
</svg>
