<?xml version="1.0" encoding="UTF-8"?>
<svg xmlns="http://www.w3.org/2000/svg" xmlns:xlink="http://www.w3.org/1999/xlink" width="3000pt" height="2999.999989pt" viewBox="0 0 3000 2999.999989" version="1.2">
<g id="surface1">
<path style=" stroke:none;fill-rule:nonzero;fill:rgb(29.40979%,14.118958%,21.179199%);fill-opacity:1;" d="M 1500 0 C 671.570312 0 0 671.570312 0 1500 C 0 2328.429688 671.570312 3000 1500 3000 C 2328.429688 3000 3000 2328.429688 3000 1500 C 3000 671.570312 2328.429688 0 1500 0 Z M 826.820312 946.050781 C 826.820312 894.421875 868.667969 852.570312 920.300781 852.570312 L 927.640625 852.570312 C 970.070312 574.429688 1210.191406 360.429688 1500 360.429688 C 1789.808594 360.429688 2029.929688 574.429688 2072.359375 852.570312 L 2084.101562 852.570312 C 2135.730469 852.570312 2177.578125 894.421875 2177.578125 946.050781 L 2177.578125 1021.148438 C 2177.578125 1072.769531 2135.730469 1114.621094 2084.101562 1114.621094 L 2053.230469 1114.621094 L 2053.230469 1148.878906 C 2053.230469 1248.589844 1990.25 1384.78125 1926.328125 1450.738281 C 1926.839844 1454.828125 1927.351562 1458.917969 1927.351562 1463.011719 C 1927.351562 1504.941406 1893.089844 1539.710938 1850.648438 1539.710938 C 1837.359375 1539.710938 1825.078125 1536.128906 1814.351562 1530 C 1790.320312 1517.730469 1773.949219 1492.160156 1773.949219 1463.53125 L 1773.949219 1463.019531 C 1773.949219 1420.582031 1808.210938 1386.320312 1850.648438 1386.320312 C 1859.859375 1386.320312 1868.550781 1387.859375 1876.730469 1391.429688 C 1924.28125 1339.789062 1976.53125 1224.550781 1976.53125 1148.878906 L 1977.449219 940.128906 C 1977.449219 666.058594 1745.28125 445.160156 1467.289062 463.789062 C 1213.828125 480.78125 1022.570312 702.960938 1022.570312 957 L 1022.570312 1048.710938 C 1022.570312 1085.109375 993.058594 1114.621094 956.660156 1114.621094 L 920.300781 1114.621094 C 868.679688 1114.621094 826.820312 1072.769531 826.820312 1021.148438 Z M 1500 1516.558594 C 1284.609375 1512.789062 1126.058594 1245.921875 1126.25 1049.96875 C 1126.25 1014.371094 1126.25 978.78125 1126.25 943.179688 C 1125.121094 745.628906 1293.46875 574.761719 1500 569.429688 C 1706.53125 574.761719 1874.871094 745.628906 1873.75 943.179688 C 1873.75 978.78125 1873.75 1014.371094 1873.75 1049.96875 C 1873.929688 1245.921875 1715.398438 1512.789062 1500 1516.558594 Z M 2274.199219 2310.539062 C 2274.199219 2381.800781 2216.429688 2439.570312 2145.167969 2439.570312 L 854.828125 2439.570312 C 783.570312 2439.570312 725.800781 2381.800781 725.800781 2310.539062 L 725.800781 2208.199219 C 725.800781 1903.960938 964.558594 1656.148438 1264.828125 1640.210938 L 1500 1950.128906 L 1735.167969 1640.210938 C 2035.441406 1656.148438 2274.199219 1903.949219 2274.199219 2208.199219 Z M 2274.199219 2310.539062 "/>
</g>
</svg>
